<?xml version="1.0" encoding="UTF-8" standalone="no"?>
<svg
   xmlns:dc="http://purl.org/dc/elements/1.1/"
   xmlns:cc="http://creativecommons.org/ns#"
   xmlns:rdf="http://www.w3.org/1999/02/22-rdf-syntax-ns#"
   xmlns:svg="http://www.w3.org/2000/svg"
   xmlns="http://www.w3.org/2000/svg"
   xmlns:sodipodi="http://sodipodi.sourceforge.net/DTD/sodipodi-0.dtd"
   xmlns:inkscape="http://www.inkscape.org/namespaces/inkscape"
   width="300.005"
   height="100"
   viewBox="0 0 300.005 99.999997"
   overflow="visible"
   version="1.1"
   id="svg10"
   sodipodi:docname="bloomberg-logo-alpha.svg"
   inkscape:version="0.92.1 r"
   style="overflow:visible">
  <metadata
     id="metadata16">
    <rdf:RDF>
      <cc:Work
         rdf:about="">
        <dc:format>image/svg+xml</dc:format>
        <dc:type
           rdf:resource="http://purl.org/dc/dcmitype/StillImage" />
        <dc:title></dc:title>
      </cc:Work>
    </rdf:RDF>
  </metadata>
  <defs
     id="defs14" />
  <sodipodi:namedview
     pagecolor="#ffffff"
     bordercolor="#666666"
     borderopacity="1"
     objecttolerance="10"
     gridtolerance="10"
     guidetolerance="10"
     inkscape:pageopacity="0"
     inkscape:pageshadow="2"
     inkscape:window-width="1920"
     inkscape:window-height="1028"
     id="namedview12"
     showgrid="false"
     inkscape:zoom="3.5466075"
     inkscape:cx="139.11033"
     inkscape:cy="11.657648"
     inkscape:window-x="0"
     inkscape:window-y="0"
     inkscape:window-maximized="1"
     inkscape:current-layer="svg10" />
  <g
     id="g4524"
     transform="translate(0,-40)">
    <path
       inkscape:connector-curvature="0"
       style="fill:#010101;fill-opacity:0.50196078"
       id="path2"
       d="m 7.897,47.343998 h 6.52 c 5.959,0 8.585,1.883 8.585,5.708 0,3.324 -2.626,5.581 -7.897,5.581 H 7.897 Z M 0,84.953998 h 15.98 c 8.398,0 16.796,-3 16.796,-12.657 0,-5.708 -4.002,-10.09 -9.579,-10.724 v -0.132 c 4.563,-1.367 7.71,-4.69 7.71,-9.706 0,-8.088 -6.903,-11.157 -13.61,-11.157 H 0 Z m 7.897,-19.555 h 7.582 c 6.392,0 9.411,1.632 9.411,6.274 0,5.821 -5.654,6.515 -9.726,6.515 H 7.897 Z" />
    <path
       inkscape:connector-curvature="0"
       style="fill:none;fill-opacity:1;stroke:#0c0c0c;stroke-width:7.5;stroke-miterlimit:10;stroke-opacity:0.50196078"
       id="path4"
       d="m 41.706,84.953998 v -45.423"
       stroke-miterlimit="10" />
    <path
       inkscape:connector-curvature="0"
       style="fill:#010101;fill-opacity:0.50196078"
       id="path6"
       d="m 58.011,69.912998 c 0,-4.701 3.324,-9.022 8.841,-9.022 5.517,0 8.831,4.322 8.831,9.022 0,4.7 -3.314,9.023 -8.831,9.023 -5.518,0 -8.841,-4.322 -8.841,-9.023 m -7.523,0 c 0,9.465 7.267,15.789 16.364,15.789 9.086,0 16.364,-6.323 16.364,-15.789 0,-9.466 -7.277,-15.798 -16.364,-15.798 -9.097,-10e-4 -16.364,6.333 -16.364,15.798 m 43.643,0 c 0,-4.701 3.324,-9.022 8.841,-9.022 5.517,0 8.831,4.322 8.831,9.022 0,4.7 -3.314,9.023 -8.831,9.023 -5.517,0 -8.841,-4.322 -8.841,-9.023 m -7.523,0 c 0,9.465 7.268,15.789 16.364,15.789 9.086,0 16.364,-6.323 16.364,-15.789 0,-9.466 -7.277,-15.798 -16.364,-15.798 -9.097,-10e-4 -16.364,6.333 -16.364,15.798" />
    <path
       inkscape:connector-curvature="0"
       style="fill:#010101;fill-opacity:0.50196078"
       id="path8"
       d="m 123.918,54.866998 h 7.149 v 4.706 h 0.118 c 1.318,-2.822 4.199,-5.463 9.214,-5.463 4.642,0 7.848,1.814 9.411,5.581 2.193,-3.816 5.389,-5.581 9.893,-5.581 8.024,0 10.848,5.713 10.848,12.922 v 17.923 h -7.523 v -17.048 c 0,-3.757 -1.121,-7.017 -5.576,-7.017 -4.7,0 -6.461,3.884 -6.461,7.764 v 16.3 h -7.513 v -17.923 c 0,-3.708 -1.505,-6.141 -5.143,-6.141 -4.947,0 -6.894,3.624 -6.894,7.641 v 16.423 h -7.523 z m 77.679,15.046 c 0,4.706 -3.314,9.023 -8.841,9.023 -5.518,0 -8.841,-4.317 -8.841,-9.023 0,-4.701 3.323,-9.033 8.841,-9.033 5.527,0 8.841,4.332 8.841,9.033 m -24.949,15.041 h 7.149 v -4.51 h 0.118 c 2.202,3.624 6.146,5.257 10.354,5.257 9.264,0 14.85,-6.894 14.85,-15.789 0,-8.9 -5.959,-15.798 -14.544,-15.798 -5.636,0 -8.654,2.626 -10.218,4.583 h -0.187 v -19.166 h -7.523 v 45.423 z m 43.397,-18.05 c 0.561,-4.332 3.324,-7.149 7.769,-7.149 4.701,0 7.582,2.759 7.651,7.149 z m 22.943,5.64 v -2.065 c 0,-10.473 -5.703,-16.364 -14.102,-16.364 -9.106,0 -16.364,6.333 -16.364,15.798 0,9.465 7.258,15.789 16.364,15.789 4.75,0 9.214,-1.691 12.715,-6.009 l -5.389,-4.066 c -1.878,2.307 -4.327,4.066 -8.084,4.066 -4.198,0 -7.592,-2.699 -8.083,-7.149 z m 4.897,-17.677 h 7.523 v 4.765 h 0.128 c 1.632,-3.447 4.946,-5.522 8.899,-5.522 0.944,0 1.819,0.192 2.694,0.447 v 7.268 c -1.249,-0.31 -2.448,-0.561 -3.639,-0.561 -7.08,0 -8.083,5.959 -8.083,7.592 v 16.099 h -7.523 v -30.088 z m 36.072,6.023 c 5.448,0 8.899,3.624 8.899,8.84 0,5.006 -3.383,8.831 -8.959,8.831 -5.074,0 -8.841,-3.948 -8.841,-8.713 0,-5.334 3.629,-8.958 8.901,-8.958 m 8.899,-6.023 v 4.514 h -0.118 c -2.202,-3.639 -6.155,-5.271 -10.354,-5.271 -9.273,0 -14.85,6.898 -14.85,15.803 0,8.516 5.959,15.415 14.978,15.415 3.766,0 7.65,-1.436 9.854,-4.381 h 0.107 v 2.198 c 0,5.949 -2.242,10.09 -9.519,10.09 -4.199,0 -7.337,-1.574 -10.346,-4.347 l -4.504,6.155 c 4.248,3.776 9.332,4.957 14.918,4.957 11.723,0 16.983,-6.903 16.983,-17.741 v -27.392 z" />
  </g>
  <text
     xml:space="preserve"
     style="font-style:normal;font-variant:normal;font-weight:normal;font-stretch:normal;font-size:47.77927017px;line-height:125%;font-family:'Frutiger Next Pro';-inkscape-font-specification:'Frutiger Next Pro';letter-spacing:0px;word-spacing:0px;fill:#000000;fill-opacity:0.50196081;stroke:none;stroke-width:1.19448173px;stroke-linecap:butt;stroke-linejoin:miter;stroke-opacity:1;"
     x="22.027424"
     y="81.220978"
     id="text4528"><tspan
       sodipodi:role="line"
       id="tspan4526"
       x="22.027424"
       y="81.220978"
       style="font-size:22.29699326px;stroke-width:1.19448173px;fill:#000000;fill-opacity:0.50196081;">Copyright waived under CC-0 </tspan></text>
  <g
     id="g4534"
     transform="matrix(0.27722805,0,0,0.27722805,1.0894476,66.70385)">
    <circle
       id="circle4530"
       r="30.096001"
       cy="32.873001"
       cx="31.325001"
       style="fill:#ffffff" />
    <path
       d="m 31.5,14.08 c -10.565,0 -13.222,9.969 -13.222,18.42 0,8.452 2.656,18.42 13.222,18.42 10.564,0 13.221,-9.968 13.221,-18.42 0,-8.451 -2.657,-18.42 -13.221,-18.42 z m 0,6.946 c 0.429,0 0.82,0.066 1.188,0.157 0.761,0.656 1.133,1.561 0.403,2.823 l -7.036,12.93 c -0.216,-1.636 -0.247,-3.24 -0.247,-4.437 0,-3.722 0.258,-11.473 5.692,-11.473 z m 5.266,5.961 c 0.373,1.984 0.426,4.056 0.426,5.513 0,3.723 -0.258,11.475 -5.69,11.475 -0.428,0 -0.822,-0.045 -1.188,-0.136 -0.07,-0.021 -0.134,-0.043 -0.202,-0.067 -0.112,-0.032 -0.23,-0.068 -0.336,-0.11 -1.21,-0.515 -1.972,-1.446 -0.874,-3.093 z"
       id="text2809_1_"
       inkscape:connector-curvature="0"
       style="fill:#000000;fill-opacity:0.50196081" />
    <path
       d="M 31.433,0.5 C 22.556,0.5 15.074,3.59 8.979,9.8 5.892,12.887 3.536,16.407 1.897,20.332 0.297,24.219 -0.5,28.271 -0.5,32.5 c 0,4.268 0.797,8.32 2.397,12.168 1.6,3.85 3.921,7.312 6.969,10.396 3.085,3.049 6.549,5.399 10.398,7.037 3.886,1.602 7.939,2.398 12.169,2.398 4.229,0 8.34,-0.826 12.303,-2.465 3.962,-1.639 7.496,-3.994 10.621,-7.081 3.011,-2.933 5.289,-6.297 6.812,-10.106 C 62.73,41 63.5,36.883 63.5,32.5 63.5,28.157 62.73,24.046 61.17,20.197 59.608,16.312 57.322,12.877 54.313,9.867 48.025,3.619 40.385,0.5 31.433,0.5 Z m 0.134,5.759 c 7.238,0 13.412,2.566 18.554,7.709 2.477,2.477 4.375,5.31 5.67,8.471 1.296,3.162 1.949,6.518 1.949,10.061 0,7.354 -2.516,13.454 -7.506,18.33 -2.592,2.516 -5.502,4.447 -8.74,5.781 -3.2,1.334 -6.498,1.994 -9.927,1.994 -3.468,0 -6.788,-0.653 -9.949,-1.948 C 18.455,55.323 15.617,53.419 13.102,50.941 10.587,48.427 8.647,45.588 7.276,42.425 5.943,39.226 5.259,35.927 5.259,32.498 c 0,-3.467 0.684,-6.787 2.017,-9.949 1.371,-3.2 3.312,-6.074 5.826,-8.628 4.99,-5.103 11.15,-7.662 18.465,-7.662 z"
       id="path2815_1_"
       inkscape:connector-curvature="0"
       style="fill:#000000;fill-opacity:0.50196081" />
  </g>
</svg>
