<?xml version="1.0" encoding="UTF-8" standalone="no"?>
<svg
   xmlns:dc="http://purl.org/dc/elements/1.1/"
   xmlns:cc="http://creativecommons.org/ns#"
   xmlns:rdf="http://www.w3.org/1999/02/22-rdf-syntax-ns#"
   xmlns:svg="http://www.w3.org/2000/svg"
   xmlns="http://www.w3.org/2000/svg"
   xmlns:sodipodi="http://sodipodi.sourceforge.net/DTD/sodipodi-0.dtd"
   xmlns:inkscape="http://www.inkscape.org/namespaces/inkscape"
   width="86.751396"
   height="300.005"
   viewBox="0 0 86.751395 300.005"
   overflow="visible"
   version="1.1"
   id="svg10"
   sodipodi:docname="bloomberg-logo-alpha-rotated.svg"
   inkscape:version="0.92.2 2405546, 2018-03-11"
   style="overflow:visible">
  <metadata
     id="metadata16">
    <rdf:RDF>
      <cc:Work
         rdf:about="">
        <dc:format>image/svg+xml</dc:format>
        <dc:type
           rdf:resource="http://purl.org/dc/dcmitype/StillImage" />
        <dc:title></dc:title>
      </cc:Work>
    </rdf:RDF>
  </metadata>
  <defs
     id="defs14" />
  <sodipodi:namedview
     pagecolor="#ffffff"
     bordercolor="#666666"
     borderopacity="1"
     objecttolerance="10"
     gridtolerance="10"
     guidetolerance="10"
     inkscape:pageopacity="0"
     inkscape:pageshadow="2"
     inkscape:window-width="1920"
     inkscape:window-height="1028"
     id="namedview12"
     showgrid="false"
     inkscape:zoom="3.5466075"
     inkscape:cx="27.013926"
     inkscape:cy="80.632355"
     inkscape:window-x="0"
     inkscape:window-y="0"
     inkscape:window-maximized="1"
     inkscape:current-layer="svg10"
     fit-margin-top="0"
     fit-margin-left="0"
     fit-margin-right="0"
     fit-margin-bottom="0" />
  <path
     d="m 7.812998,292.108 v -6.52 c 0,-5.959 1.883,-8.585 5.708,-8.585 3.324,0 5.581,2.626 5.581,7.897 v 7.208 z m 37.61,7.897 v -15.98 c 0,-8.398 -3,-16.796 -12.657,-16.796 -5.708,0 -10.09,4.002 -10.724,9.579 h -0.132 c -1.367,-4.563 -4.69,-7.71 -9.706,-7.71 -8.088,0 -11.157,6.903 -11.157,13.61 v 17.297 z m -19.555,-7.897 v -7.582 c 0,-6.392 1.632,-9.411 6.274,-9.411 5.821,0 6.515,5.654 6.515,9.726 v 7.267 z"
     id="path2"
     style="fill:#010101;fill-opacity:1"
     inkscape:connector-curvature="0" />
  <path
     stroke-miterlimit="10"
     d="M 45.422998,258.299 H -2e-6"
     id="path4"
     style="fill:none;fill-opacity:1;stroke:#0c0c0c;stroke-width:7.5;stroke-miterlimit:10;stroke-opacity:1"
     inkscape:connector-curvature="0" />
  <path
     d="m 30.381998,241.994 c -4.701,0 -9.022,-3.324 -9.022,-8.841 0,-5.517 4.322,-8.831 9.022,-8.831 4.7,0 9.023,3.314 9.023,8.831 0,5.518 -4.322,8.841 -9.023,8.841 m 0,7.523 c 9.465,0 15.789,-7.267 15.789,-16.364 0,-9.086 -6.323,-16.364 -15.789,-16.364 -9.466,0 -15.798,7.277 -15.798,16.364 -10e-4,9.097 6.333,16.364 15.798,16.364 m 0,-43.643 c -4.701,0 -9.022,-3.324 -9.022,-8.841 0,-5.517 4.322,-8.831 9.022,-8.831 4.7,0 9.023,3.314 9.023,8.831 0,5.517 -4.322,8.841 -9.023,8.841 m 0,7.523 c 9.465,0 15.789,-7.268 15.789,-16.364 0,-9.086 -6.323,-16.364 -15.789,-16.364 -9.466,0 -15.798,7.277 -15.798,16.364 -10e-4,9.097 6.333,16.364 15.798,16.364"
     id="path6"
     style="fill:#010101;fill-opacity:0.91584158"
     inkscape:connector-curvature="0" />
  <path
     d="m 15.335998,176.087 v -7.149 h 4.706 v -0.118 c -2.822,-1.318 -5.463,-4.199 -5.463,-9.214 0,-4.642 1.814,-7.848 5.581,-9.411 -3.816,-2.193 -5.581,-5.389 -5.581,-9.893 0,-8.024 5.713,-10.848 12.922,-10.848 h 17.923 v 7.523 h -17.048 c -3.757,0 -7.017,1.121 -7.017,5.576 0,4.7 3.884,6.461 7.764,6.461 h 16.3 v 7.513 h -17.923 c -3.708,0 -6.141,1.505 -6.141,5.143 0,4.947 3.624,6.894 7.641,6.894 h 16.423 v 7.523 z m 15.046,-77.679 c 4.706,0 9.023,3.314 9.023,8.841 0,5.518 -4.317,8.841 -9.023,8.841 -4.701,0 -9.033,-3.323 -9.033,-8.841 0,-5.527 4.332,-8.841 9.033,-8.841 m 15.041,24.949 v -7.149 h -4.51 v -0.118 c 3.624,-2.202 5.257,-6.146 5.257,-10.354 0,-9.264 -6.894,-14.85 -15.789,-14.85 -8.9,0 -15.798,5.959 -15.798,14.544 0,5.636 2.626,8.654 4.583,10.218 v 0.187 H -2e-6 v 7.523 h 45.423 z m -18.05,-43.397 c -4.332,-0.561 -7.149,-3.324 -7.149,-7.769 0,-4.701 2.759,-7.582 7.149,-7.651 z m 5.64,-22.943 h -2.065 c -10.473,0 -16.364,5.703 -16.364,14.102 0,9.106 6.333,16.364 15.798,16.364 9.465,0 15.789,-7.258 15.789,-16.364 0,-4.75 -1.691,-9.214 -6.009,-12.715 l -4.066,5.389 c 2.307,1.878 4.066,4.327 4.066,8.084 0,4.198 -2.699,7.592 -7.149,8.083 z m -17.677,-4.897 v -7.523 h 4.765 v -0.128 c -3.447,-1.632 -5.522,-4.946 -5.522,-8.899 0,-0.944 0.192,-1.819 0.447,-2.694 h 7.268 c -0.31,1.249 -0.561,2.448 -0.561,3.639 0,7.08 5.959,8.083 7.592,8.083 h 16.099 v 7.523 h -30.088 z m 6.023,-36.072 c 0,-5.448 3.624,-8.899 8.84,-8.899 5.006,0 8.831,3.383 8.831,8.959 0,5.074 -3.948,8.841 -8.713,8.841 -5.334,0 -8.958,-3.629 -8.958,-8.901 m -6.023,-8.899 h 4.514 v 0.118 c -3.639,2.202 -5.271,6.155 -5.271,10.354 0,9.273 6.898,14.85 15.803,14.85 8.516,0 15.415,-5.959 15.415,-14.978 0,-3.766 -1.436,-7.65 -4.381,-9.854 V 7.532 h 2.198 c 5.949,0 10.09,2.242 10.09,9.519 0,4.199 -1.574,7.337 -4.347,10.346 l 6.155,4.504 c 3.776,-4.248 4.957,-9.332 4.957,-14.918 0,-11.723 -6.903,-16.983 -17.741,-16.983 h -27.392 z"
     id="path8"
     style="fill:#010101;fill-opacity:1"
     inkscape:connector-curvature="0" />
  <g
     aria-label="Copyright waived under CC-0 "
     style="font-style:normal;font-variant:normal;font-weight:normal;font-stretch:normal;font-size:47.77927017px;line-height:125%;font-family:'Frutiger Next Pro';-inkscape-font-specification:'Frutiger Next Pro';letter-spacing:0px;word-spacing:0px;fill:#000000;fill-opacity:1;stroke:none;stroke-width:1.19448173px;stroke-linecap:butt;stroke-linejoin:miter;stroke-opacity:1"
     id="text4528"
     transform="rotate(-90,150.237,149.768)">
    <path
       inkscape:connector-curvature="0"
       d="m 34.223879,79.303436 c -1.047959,0.512831 -2.207402,0.646613 -3.344549,0.646613 -3.745895,0 -5.864109,-2.497263 -5.864109,-6.15397 0,-3.500628 2.207402,-6.15397 5.886406,-6.15397 1.047959,0 2.318887,0.200673 3.277658,0.646613 l 0.133782,-1.583087 c -0.981068,-0.423643 -2.430372,-0.579722 -3.500628,-0.579722 -4.526289,0 -7.647868,3.233064 -7.647868,7.670166 0,4.637775 2.943203,7.670166 7.647868,7.670166 1.092553,0 2.564154,-0.156079 3.545222,-0.66891 z"
       style="font-size:22.29699326px;fill:#000000;fill-opacity:1;stroke-width:1.19448173px"
       id="path4596" />
    <path
       inkscape:connector-curvature="0"
       d="m 39.058843,81.020305 c 0.646612,0.289861 1.40471,0.44594 2.274293,0.44594 3.433737,0 5.195199,-2.631045 5.195199,-5.841813 0,-3.277658 -1.716868,-5.730327 -5.195199,-5.730327 -3.299955,0 -5.195199,2.541857 -5.195199,5.730327 0,2.430373 0.981067,4.459399 2.920906,5.395873 z m -0.379049,-2.341184 c -0.557425,-0.869583 -0.802692,-1.984433 -0.802692,-3.054689 0,-2.140511 1.003365,-4.37021 3.456034,-4.37021 2.497263,0 3.456034,2.140511 3.456034,4.37021 0,2.140512 -1.025662,4.481696 -3.456034,4.481696 -1.226335,0 -2.095917,-0.602019 -2.653342,-1.427007 z"
       style="font-size:22.29699326px;fill:#000000;fill-opacity:1;stroke-width:1.19448173px"
       id="path4598" />
    <path
       inkscape:connector-curvature="0"
       d="m 50.715291,86.037128 v -6.622207 c 0.557425,1.315523 1.939839,2.051324 3.389143,2.051324 3.299955,0 4.52629,-2.987797 4.52629,-5.841813 0,-2.943203 -1.11485,-5.730327 -4.503993,-5.730327 -1.471601,0 -2.920906,0.847286 -3.522925,2.162809 l -0.08919,-1.939839 h -1.538492 c 0.06689,1.248632 0.111485,2.408075 0.111485,3.723598 V 86.037128 Z M 51.31731,78.589933 C 50.849073,77.698053 50.6484,76.6055 50.6484,75.624432 c 0,-1.962135 0.824989,-4.347913 3.143877,-4.347913 2.51956,0 3.076985,2.29659 3.076985,4.347913 0,2.029027 -0.602019,4.459399 -3.076985,4.459399 -1.181741,0 -1.962136,-0.624316 -2.474967,-1.493898 z"
       style="font-size:22.29699326px;fill:#000000;fill-opacity:1;stroke-width:1.19448173px"
       id="path4600" />
    <path
       inkscape:connector-curvature="0"
       d="m 60.257708,86.104019 c 0.512831,0.111485 0.802692,0.178376 1.33782,0.178376 1.694571,0 2.586451,-1.40471 3.18847,-3.121579 l 4.459399,-13.043741 h -1.694572 l -2.9655,9.56541 -2.987797,-9.56541 h -1.761462 l 3.857379,11.482952 -0.22297,0.7358 c -0.245266,0.780395 -0.847285,2.564155 -2.07362,2.564155 -0.356752,0 -0.66891,-0.08919 -1.003365,-0.200673 z"
       style="font-size:22.29699326px;fill:#000000;fill-opacity:1;stroke-width:1.19448173px"
       id="path4602" />
    <path
       inkscape:connector-curvature="0"
       d="M 72.707445,81.220978 V 75.71362 c 0,-1.739165 0.490533,-4.236428 2.74253,-4.236428 0.289861,0 0.602019,0.04459 0.89188,0.133782 l 0.08919,-1.627681 c -0.334454,-0.08919 -0.602018,-0.08919 -0.936473,-0.08919 -1.360117,0 -2.51956,1.181741 -2.943203,2.318888 l -0.08919,-2.095918 H 70.96828 c 0.08919,0.869583 0.111485,1.739166 0.111485,2.608748 v 8.495155 z"
       style="font-size:22.29699326px;fill:#000000;fill-opacity:1;stroke-width:1.19448173px"
       id="path4604" />
    <path
       inkscape:connector-curvature="0"
       d="M 80.023645,67.642109 V 65.70227 h -1.627681 v 1.939839 z m 0,13.578869 V 70.117075 h -1.627681 v 11.103903 z"
       style="font-size:22.29699326px;fill:#000000;fill-opacity:1;stroke-width:1.19448173px"
       id="path4606" />
    <path
       inkscape:connector-curvature="0"
       d="m 83.496402,85.702673 c 1.137147,0.356752 2.296591,0.579722 3.456034,0.579722 3.63441,0 5.1952,-2.162808 5.1952,-5.618842 V 70.117075 h -1.538493 v 1.872948 c -0.713504,-1.427008 -1.895244,-2.095918 -3.478331,-2.095918 -3.277658,0 -4.526289,2.787124 -4.526289,5.730327 0,2.742531 1.18174,5.596546 4.481695,5.596546 1.404711,0 2.74253,-0.713504 3.433737,-1.962136 v 1.427008 c 0,2.408075 -1.003364,4.236429 -3.679004,4.236429 -1.137146,0 -2.229699,-0.289861 -3.210767,-0.802692 z m 1.449305,-7.246522 c -0.44594,-0.802692 -0.602019,-1.850651 -0.602019,-2.809422 0,-2.051323 0.602019,-4.37021 3.099282,-4.37021 2.296591,0 3.121579,2.430372 3.121579,4.37021 0,1.872948 -0.758098,4.191835 -3.143876,4.191835 -1.248631,0 -2.006729,-0.579722 -2.474966,-1.382413 z"
       style="font-size:22.29699326px;fill:#000000;fill-opacity:1;stroke-width:1.19448173px"
       id="path4608" />
    <path
       inkscape:connector-curvature="0"
       d="m 97.007684,81.220978 v -5.997891 c 0,-1.962136 0.735801,-3.946568 3.032396,-3.946568 2.14051,0 2.49726,1.583086 2.49726,3.344549 v 6.59991 h 1.60538 v -6.889771 c 0,-2.564154 -0.98107,-4.437102 -3.7013,-4.437102 -1.583085,0 -2.720232,0.691207 -3.433736,2.095918 v -6.845177 h -1.62768 v 16.076132 z"
       style="font-size:22.29699326px;fill:#000000;fill-opacity:1;stroke-width:1.19448173px"
       id="path4610" />
    <path
       inkscape:connector-curvature="0"
       d="m 112.52778,79.771673 c -0.42364,0.178376 -0.80269,0.289861 -1.24863,0.289861 -1.15944,0 -1.42701,-0.869583 -1.42701,-1.85065 v -6.82288 h 2.51956 v -1.270929 h -2.51956 v -3.054688 l -1.60538,0.557425 v 2.497263 h -2.09592 v 1.270929 h 2.09592 v 6.399237 c 0,2.029026 0.28986,3.679004 2.56415,3.679004 0.60202,0 1.24864,-0.08919 1.80606,-0.334455 z"
       style="font-size:22.29699326px;fill:#000000;fill-opacity:1;stroke-width:1.19448173px"
       id="path4612" />
    <path
       inkscape:connector-curvature="0"
       d="m 124.9162,81.220978 2.87631,-9.56541 2.83172,9.56541 h 1.98443 l 3.45604,-11.103903 h -1.56079 l -2.80943,9.587707 -2.87631,-9.587707 h -1.93984 l -2.87631,9.587707 -2.83172,-9.587707 h -1.73916 l 3.52292,11.103903 z"
       style="font-size:22.29699326px;fill:#000000;fill-opacity:1;stroke-width:1.19448173px"
       id="path4614" />
    <path
       inkscape:connector-curvature="0"
       d="m 144.10241,75.646729 v 0.66891 c 0,2.051324 -0.82499,3.835083 -3.18847,3.835083 -1.09255,0 -2.14051,-0.557425 -2.14051,-2.051323 0,-2.2297 2.43037,-2.45267 4.50399,-2.45267 z m 1.73917,5.574249 c -0.11149,-0.780395 -0.13378,-1.538493 -0.13378,-2.363482 v -4.81615 c 0,-2.787124 -1.24863,-4.147241 -4.03576,-4.147241 -1.04796,0 -2.38578,0.312158 -3.34455,0.780395 l 0.13378,1.449305 c 0.95877,-0.624316 2.00673,-0.936474 3.14388,-0.936474 1.85065,0 2.49726,1.047959 2.49726,2.74253 v 0.535128 h -1.24863 c -3.25536,0 -5.75262,0.847286 -5.75262,3.701301 0,2.251996 1.64997,3.299955 3.63441,3.299955 1.40471,0 2.80942,-0.602019 3.45603,-2.029027 l 0.0669,1.78376 z"
       style="font-size:22.29699326px;fill:#000000;fill-opacity:1;stroke-width:1.19448173px"
       id="path4616" />
    <path
       inkscape:connector-curvature="0"
       d="M 150.57272,67.642109 V 65.70227 h -1.62768 v 1.939839 z m 0,13.578869 V 70.117075 h -1.62768 v 11.103903 z"
       style="font-size:22.29699326px;fill:#000000;fill-opacity:1;stroke-width:1.19448173px"
       id="path4618" />
    <path
       inkscape:connector-curvature="0"
       d="m 158.08123,81.220978 3.7682,-11.103903 h -1.69458 l -2.98779,9.676895 -2.9655,-9.676895 h -1.76147 l 3.7236,11.103903 z"
       style="font-size:22.29699326px;fill:#000000;fill-opacity:1;stroke-width:1.19448173px"
       id="path4620" />
    <path
       inkscape:connector-curvature="0"
       d="m 164.68917,74.665662 c 0.0669,-1.583087 1.15944,-3.478331 3.27765,-3.478331 2.16281,0 2.72024,1.962135 2.83172,3.478331 z m 7.69246,1.204037 v -0.267564 c 0,-2.943203 -0.98107,-5.70803 -4.4371,-5.70803 -3.32226,0 -4.94994,2.898609 -4.94994,5.730327 0,3.322252 1.78376,5.841813 5.61885,5.841813 1.04796,0 2.16281,-0.245267 3.12158,-0.713504 l -0.0669,-1.449305 c -0.82498,0.535128 -1.98443,0.847286 -3.05468,0.847286 -2.78713,0 -3.92427,-2.140511 -3.92427,-4.281023 z"
       style="font-size:22.29699326px;fill:#000000;fill-opacity:1;stroke-width:1.19448173px"
       id="path4622" />
    <path
       inkscape:connector-curvature="0"
       d="m 183.62453,81.220978 c -0.0669,-1.159444 -0.11149,-2.296591 -0.11149,-3.522925 V 65.144846 h -1.62768 v 6.845177 c -0.55742,-1.315523 -1.93984,-2.095918 -3.34455,-2.095918 -3.32225,0 -4.57088,2.787124 -4.57088,5.730327 0,2.854016 1.22633,5.841813 4.52629,5.841813 1.53849,0 2.76483,-0.66891 3.47833,-2.095918 l 0.13378,1.850651 z m -7.29112,-2.586451 c -0.46824,-0.869583 -0.62432,-1.984433 -0.62432,-2.987798 0,-2.051323 0.55743,-4.37021 3.07699,-4.37021 2.31889,0 3.14388,2.430372 3.14388,4.37021 0,1.939839 -0.7581,4.437102 -3.12158,4.437102 -1.24864,0 -2.00673,-0.624316 -2.47497,-1.449304 z"
       style="font-size:22.29699326px;fill:#000000;fill-opacity:1;stroke-width:1.19448173px"
       id="path4624" />
    <path
       inkscape:connector-curvature="0"
       d="m 194.38179,70.117075 h -1.62768 v 6.867474 c 0,2.586451 0.86958,4.481696 3.7013,4.481696 1.62768,0 2.80942,-0.735801 3.58982,-2.162809 l 0.0446,1.917542 h 1.4939 c -0.0892,-0.869583 -0.11148,-1.739166 -0.11148,-2.608748 v -8.495155 h -1.60539 v 5.975594 c 0,1.962136 -0.7135,3.968865 -3.03239,3.968865 -2.11821,0 -2.45267,-1.605383 -2.45267,-3.366846 z"
       style="font-size:22.29699326px;fill:#000000;fill-opacity:1;stroke-width:1.19448173px"
       id="path4626" />
    <path
       inkscape:connector-curvature="0"
       d="m 206.35876,81.220978 v -5.975594 c 0,-1.962136 0.7135,-3.968865 3.03239,-3.968865 2.14051,0 2.49726,1.605383 2.49726,3.366846 v 6.577613 h 1.60539 v -6.889771 c 0,-2.564154 -0.86959,-4.437102 -3.7236,-4.437102 -1.60539,0 -2.80942,0.713504 -3.58982,2.140512 l -0.0669,-1.917542 h -1.4939 c 0.0892,0.869583 0.11149,1.739166 0.11149,2.608748 v 8.495155 z"
       style="font-size:22.29699326px;fill:#000000;fill-opacity:1;stroke-width:1.19448173px"
       id="path4628" />
    <path
       inkscape:connector-curvature="0"
       d="m 225.73624,81.220978 c -0.0669,-1.159444 -0.11149,-2.296591 -0.11149,-3.522925 V 65.144846 h -1.62768 v 6.845177 c -0.55742,-1.315523 -1.93984,-2.095918 -3.34455,-2.095918 -3.32225,0 -4.57088,2.787124 -4.57088,5.730327 0,2.854016 1.22633,5.841813 4.52629,5.841813 1.53849,0 2.76483,-0.66891 3.47833,-2.095918 l 0.13378,1.850651 z m -7.29112,-2.586451 c -0.46824,-0.869583 -0.62432,-1.984433 -0.62432,-2.987798 0,-2.051323 0.55743,-4.37021 3.07699,-4.37021 2.31889,0 3.14387,2.430372 3.14387,4.37021 0,1.939839 -0.75809,4.437102 -3.12157,4.437102 -1.24864,0 -2.00673,-0.624316 -2.47497,-1.449304 z"
       style="font-size:22.29699326px;fill:#000000;fill-opacity:1;stroke-width:1.19448173px"
       id="path4630" />
    <path
       inkscape:connector-curvature="0"
       d="m 229.83818,74.665662 c 0.0669,-1.583087 1.15945,-3.478331 3.27766,-3.478331 2.16281,0 2.72023,1.962135 2.83172,3.478331 z m 7.69247,1.204037 v -0.267564 c 0,-2.943203 -0.98107,-5.70803 -4.43711,-5.70803 -3.32225,0 -4.94993,2.898609 -4.94993,5.730327 0,3.322252 1.78376,5.841813 5.61884,5.841813 1.04796,0 2.16281,-0.245267 3.12158,-0.713504 l -0.0669,-1.449305 c -0.82499,0.535128 -1.98443,0.847286 -3.05469,0.847286 -2.78712,0 -3.92427,-2.140511 -3.92427,-4.281023 z"
       style="font-size:22.29699326px;fill:#000000;fill-opacity:1;stroke-width:1.19448173px"
       id="path4632" />
    <path
       inkscape:connector-curvature="0"
       d="M 241.41555,81.220978 V 75.71362 c 0,-1.739165 0.49054,-4.236428 2.74253,-4.236428 0.28986,0 0.60202,0.04459 0.89188,0.133782 l 0.0892,-1.627681 c -0.33446,-0.08919 -0.60202,-0.08919 -0.93647,-0.08919 -1.36012,0 -2.51956,1.181741 -2.94321,2.318888 l -0.0892,-2.095918 h -1.49389 c 0.0892,0.869583 0.11148,1.739166 0.11148,2.608748 v 8.495155 z"
       style="font-size:22.29699326px;fill:#000000;fill-opacity:1;stroke-width:1.19448173px"
       id="path4634" />
    <path
       inkscape:connector-curvature="0"
       d="m 263.72614,79.303436 c -1.04796,0.512831 -2.2074,0.646613 -3.34455,0.646613 -3.7459,0 -5.86411,-2.497263 -5.86411,-6.15397 0,-3.500628 2.2074,-6.15397 5.88641,-6.15397 1.04795,0 2.31888,0.200673 3.27765,0.646613 l 0.13379,-1.583087 c -0.98107,-0.423643 -2.43038,-0.579722 -3.50063,-0.579722 -4.52629,0 -7.64787,3.233064 -7.64787,7.670166 0,4.637775 2.9432,7.670166 7.64787,7.670166 1.09255,0 2.56415,-0.156079 3.54522,-0.66891 z"
       style="font-size:22.29699326px;fill:#000000;fill-opacity:1;stroke-width:1.19448173px"
       id="path4636" />
    <path
       inkscape:connector-curvature="0"
       d="m 276.87787,79.303436 c -1.04796,0.512831 -2.2074,0.646613 -3.34455,0.646613 -3.74589,0 -5.86411,-2.497263 -5.86411,-6.15397 0,-3.500628 2.2074,-6.15397 5.88641,-6.15397 1.04796,0 2.31889,0.200673 3.27766,0.646613 l 0.13378,-1.583087 c -0.98107,-0.423643 -2.43037,-0.579722 -3.50063,-0.579722 -4.52629,0 -7.64787,3.233064 -7.64787,7.670166 0,4.637775 2.94321,7.670166 7.64787,7.670166 1.09255,0 2.56416,-0.156079 3.54522,-0.66891 z"
       style="font-size:22.29699326px;fill:#000000;fill-opacity:1;stroke-width:1.19448173px"
       id="path4638" />
    <path
       inkscape:connector-curvature="0"
       d="m 284.09862,75.044711 v -1.471602 h -5.39587 v 1.471602 z"
       style="font-size:22.29699326px;fill:#000000;fill-opacity:1;stroke-width:1.19448173px"
       id="path4640" />
    <path
       inkscape:connector-curvature="0"
       d="m 288.43121,80.752741 c 0.66891,0.468237 1.53849,0.713504 2.58645,0.713504 4.14724,0 5.06142,-4.370211 5.06142,-7.670166 0,-3.277658 -0.93647,-7.670166 -5.06142,-7.670166 -4.10264,0 -5.03912,4.370211 -5.03912,7.670166 0,2.564154 0.44594,5.574248 2.45267,6.956662 z m -0.17837,-2.943203 c -0.42365,-1.270929 -0.46824,-2.831718 -0.46824,-4.013459 0,-2.318887 0.26756,-6.220861 3.23306,-6.220861 2.9655,0 3.25536,3.835083 3.25536,6.220861 0,2.318887 -0.28986,6.220861 -3.25536,6.220861 -1.51619,0 -2.31888,-0.958771 -2.76482,-2.207402 z"
       style="font-size:22.29699326px;fill:#000000;fill-opacity:1;stroke-width:1.19448173px"
       id="path4642" />
  </g>
  <circle
     style="fill:#ffffff;stroke-width:0.27722806"
     cx="-290.23138"
     cy="76.286171"
     r="8.3434553"
     id="circle4530"
     transform="rotate(-90)" />
  <path
     style="fill:#000000;fill-opacity:0.95544553;stroke-width:0.27722806"
     inkscape:connector-curvature="0"
     id="text2809_1_"
     d="m 71.076221,290.18287 c 0,2.92891 2.763686,3.66551 5.106541,3.66551 2.343131,0 5.10654,-0.73632 5.10654,-3.66551 0,-2.92864 -2.763409,-3.66524 -5.10654,-3.66524 -2.342855,0 -5.106541,0.7366 -5.106541,3.66524 z m 1.925626,0 c 0,-0.11893 0.0183,-0.22733 0.04353,-0.32935 0.181861,-0.21097 0.432753,-0.3141 0.782615,-0.11172 l 3.584558,1.95057 c -0.453545,0.0599 -0.898219,0.0685 -1.230061,0.0685 -1.031842,0 -3.180637,-0.0715 -3.180637,-1.57798 z m 1.652556,-1.45989 c 0.550021,-0.1034 1.124437,-0.1181 1.528359,-0.1181 1.03212,0 3.181191,0.0715 3.181191,1.57743 0,0.11866 -0.01247,0.22788 -0.0377,0.32935 -0.0058,0.0194 -0.01192,0.0371 -0.01857,0.056 -0.0089,0.031 -0.01885,0.0638 -0.0305,0.0932 -0.142772,0.33544 -0.400872,0.54669 -0.857466,0.24229 z" />
  <path
     style="fill:#000000;fill-opacity:0.97029704;stroke-width:0.27722806"
     inkscape:connector-curvature="0"
     id="path2815_1_"
     d="m 67.311464,290.20144 c 0,2.46095 0.856635,4.53517 2.578221,6.22488 0.855803,0.8558 1.831646,1.50895 2.919766,1.96333 1.077585,0.44356 2.200913,0.66451 3.373311,0.66451 1.183209,0 2.306537,-0.22095 3.373311,-0.66451 1.067328,-0.44357 2.027091,-1.08701 2.882062,-1.932 0.845269,-0.85525 1.496755,-1.81557 1.950854,-2.88262 0.444119,-1.07731 0.664793,-2.20091 0.664793,-3.37359 0,-1.1724 -0.22899,-2.31208 -0.683367,-3.41074 -0.454377,-1.09837 -1.107249,-2.0781 -1.963052,-2.94444 -0.81311,-0.83473 -1.745705,-1.46625 -2.801667,-1.88847 -1.066496,-0.43276 -2.207844,-0.64622 -3.422934,-0.64622 -1.204002,0 -2.343686,0.21346 -3.410737,0.64594 -1.077031,0.43303 -2.029309,1.06677 -2.863766,1.90095 -1.732121,1.74321 -2.596795,3.86124 -2.596795,6.34298 z m 1.596556,-0.0371 c 0,-2.00657 0.711368,-3.71818 2.137151,-5.14369 0.686694,-0.68669 1.472081,-1.21287 2.348399,-1.57188 0.876595,-0.35929 1.806973,-0.54032 2.789192,-0.54032 2.038735,0 3.729826,0.69751 5.08159,2.08088 0.697506,0.71857 1.232833,1.5253 1.602655,2.42297 0.369822,0.88713 0.552793,1.80143 0.552793,2.75204 0,0.96143 -0.18103,1.88183 -0.54004,2.75814 -0.369823,0.87688 -0.897665,1.66365 -1.584636,2.36088 -0.696951,0.69723 -1.484002,1.23505 -2.360874,1.61513 -0.886853,0.36954 -1.801428,0.55917 -2.752043,0.55917 -0.961149,0 -1.881547,-0.18963 -2.758142,-0.55917 -0.887129,-0.38008 -1.683883,-0.91818 -2.391923,-1.61513 -1.414695,-1.38337 -2.124122,-3.09109 -2.124122,-5.11902 z" />
</svg>
