<?xml version="1.0" encoding="UTF-8" standalone="no"?>
<svg
   xmlns:dc="http://purl.org/dc/elements/1.1/"
   xmlns:cc="http://creativecommons.org/ns#"
   xmlns:rdf="http://www.w3.org/1999/02/22-rdf-syntax-ns#"
   xmlns:svg="http://www.w3.org/2000/svg"
   xmlns="http://www.w3.org/2000/svg"
   xmlns:sodipodi="http://sodipodi.sourceforge.net/DTD/sodipodi-0.dtd"
   xmlns:inkscape="http://www.inkscape.org/namespaces/inkscape"
   width="60.469002"
   height="300.005"
   viewBox="0 0 60.469001 300.005"
   overflow="visible"
   version="1.1"
   id="svg10"
   sodipodi:docname="bloomberg-logo-black-rotated-nocc0.svg"
   inkscape:version="0.92.2 2405546, 2018-03-11"
   style="overflow:visible">
  <metadata
     id="metadata16">
    <rdf:RDF>
      <cc:Work
         rdf:about="">
        <dc:format>image/svg+xml</dc:format>
        <dc:type
           rdf:resource="http://purl.org/dc/dcmitype/StillImage" />
        <dc:title></dc:title>
      </cc:Work>
    </rdf:RDF>
  </metadata>
  <defs
     id="defs14" />
  <sodipodi:namedview
     pagecolor="#ffffff"
     bordercolor="#666666"
     borderopacity="1"
     objecttolerance="10"
     gridtolerance="10"
     guidetolerance="10"
     inkscape:pageopacity="0"
     inkscape:pageshadow="2"
     inkscape:window-width="1920"
     inkscape:window-height="1028"
     id="namedview12"
     showgrid="false"
     inkscape:zoom="1.7733038"
     inkscape:cx="-226.70478"
     inkscape:cy="84.961962"
     inkscape:window-x="0"
     inkscape:window-y="0"
     inkscape:window-maximized="1"
     inkscape:current-layer="svg10"
     fit-margin-top="0"
     fit-margin-left="0"
     fit-margin-right="0"
     fit-margin-bottom="0" />
  <path
     d="m 7.813,292.108 v -6.52 c 0,-5.959 1.883,-8.585 5.708,-8.585 3.324,0 5.581,2.626 5.581,7.897 v 7.208 z m 37.61,7.897 v -15.98 c 0,-8.398 -3,-16.796 -12.657,-16.796 -5.708,0 -10.09,4.002 -10.724,9.579 H 21.91 c -1.367,-4.563 -4.69,-7.71 -9.706,-7.71 -8.088,0 -11.157,6.903 -11.157,13.61 v 17.297 z m -19.555,-7.897 v -7.582 c 0,-6.392 1.632,-9.411 6.274,-9.411 5.821,0 6.515,5.654 6.515,9.726 v 7.267 z"
     id="path2"
     style="fill:#010101;fill-opacity:1"
     inkscape:connector-curvature="0" />
  <path
     stroke-miterlimit="10"
     d="M 45.423,258.299 H 0"
     id="path4"
     style="fill:none;fill-opacity:1;stroke:#0c0c0c;stroke-width:7.5;stroke-miterlimit:10;stroke-opacity:1"
     inkscape:connector-curvature="0" />
  <path
     d="m 30.382,241.994 c -4.701,0 -9.022,-3.324 -9.022,-8.841 0,-5.517 4.322,-8.831 9.022,-8.831 4.7,0 9.023,3.314 9.023,8.831 0,5.518 -4.322,8.841 -9.023,8.841 m 0,7.523 c 9.465,0 15.789,-7.267 15.789,-16.364 0,-9.086 -6.323,-16.364 -15.789,-16.364 -9.466,0 -15.798,7.277 -15.798,16.364 -10e-4,9.097 6.333,16.364 15.798,16.364 m 0,-43.643 c -4.701,0 -9.022,-3.324 -9.022,-8.841 0,-5.517 4.322,-8.831 9.022,-8.831 4.7,0 9.023,3.314 9.023,8.831 0,5.517 -4.322,8.841 -9.023,8.841 m 0,7.523 c 9.465,0 15.789,-7.268 15.789,-16.364 0,-9.086 -6.323,-16.364 -15.789,-16.364 -9.466,0 -15.798,7.277 -15.798,16.364 -10e-4,9.097 6.333,16.364 15.798,16.364"
     id="path6"
     style="fill:#010101;fill-opacity:0.91584156"
     inkscape:connector-curvature="0" />
  <path
     d="m 15.336,176.087 v -7.149 h 4.706 v -0.118 c -2.822,-1.318 -5.463,-4.199 -5.463,-9.214 0,-4.642 1.814,-7.848 5.581,-9.411 -3.816,-2.193 -5.581,-5.389 -5.581,-9.893 0,-8.024 5.713,-10.848 12.922,-10.848 h 17.923 v 7.523 H 28.376 c -3.757,0 -7.017,1.121 -7.017,5.576 0,4.7 3.884,6.461 7.764,6.461 h 16.3 v 7.513 H 27.5 c -3.708,0 -6.141,1.505 -6.141,5.143 0,4.947 3.624,6.894 7.641,6.894 h 16.423 v 7.523 z M 30.382,98.408 c 4.706,0 9.023,3.314 9.023,8.841 0,5.518 -4.317,8.841 -9.023,8.841 -4.701,0 -9.033,-3.323 -9.033,-8.841 0,-5.527 4.332,-8.841 9.033,-8.841 m 15.041,24.949 v -7.149 h -4.51 v -0.118 c 3.624,-2.202 5.257,-6.146 5.257,-10.354 0,-9.264 -6.894,-14.85 -15.789,-14.85 -8.9,0 -15.798,5.959 -15.798,14.544 0,5.636 2.626,8.654 4.583,10.218 v 0.187 H 0 v 7.523 H 45.423 Z M 27.373,79.96 c -4.332,-0.561 -7.149,-3.324 -7.149,-7.769 0,-4.701 2.759,-7.582 7.149,-7.651 z m 5.64,-22.943 h -2.065 c -10.473,0 -16.364,5.703 -16.364,14.102 0,9.106 6.333,16.364 15.798,16.364 9.465,0 15.789,-7.258 15.789,-16.364 0,-4.75 -1.691,-9.214 -6.009,-12.715 l -4.066,5.389 c 2.307,1.878 4.066,4.327 4.066,8.084 0,4.198 -2.699,7.592 -7.149,8.083 z M 15.336,52.12 v -7.523 h 4.765 v -0.128 c -3.447,-1.632 -5.522,-4.946 -5.522,-8.899 0,-0.944 0.192,-1.819 0.447,-2.694 h 7.268 c -0.31,1.249 -0.561,2.448 -0.561,3.639 0,7.08 5.959,8.083 7.592,8.083 h 16.099 v 7.523 H 15.336 Z m 6.023,-36.072 c 0,-5.448 3.624,-8.899 8.84,-8.899 5.006,0 8.831,3.383 8.831,8.959 0,5.074 -3.948,8.841 -8.713,8.841 -5.334,0 -8.958,-3.629 -8.958,-8.901 M 15.336,7.149 h 4.514 v 0.118 c -3.639,2.202 -5.271,6.155 -5.271,10.354 0,9.273 6.898,14.85 15.803,14.85 8.516,0 15.415,-5.959 15.415,-14.978 0,-3.766 -1.436,-7.65 -4.381,-9.854 V 7.532 h 2.198 c 5.949,0 10.09,2.242 10.09,9.519 0,4.199 -1.574,7.337 -4.347,10.346 l 6.155,4.504 C 59.288,27.653 60.469,22.569 60.469,16.983 60.469,5.26 53.566,0 42.728,0 H 15.336 Z"
     id="path8"
     style="fill:#010101;fill-opacity:1"
     inkscape:connector-curvature="0" />
</svg>
