<?xml version="1.0" encoding="UTF-8" standalone="no"?>
<svg
   xmlns:dc="http://purl.org/dc/elements/1.1/"
   xmlns:cc="http://creativecommons.org/ns#"
   xmlns:rdf="http://www.w3.org/1999/02/22-rdf-syntax-ns#"
   xmlns:svg="http://www.w3.org/2000/svg"
   xmlns="http://www.w3.org/2000/svg"
   xmlns:sodipodi="http://sodipodi.sourceforge.net/DTD/sodipodi-0.dtd"
   xmlns:inkscape="http://www.inkscape.org/namespaces/inkscape"
   width="300.005"
   height="100"
   viewBox="0 0 300.005 99.999997"
   overflow="visible"
   version="1.1"
   id="svg10"
   sodipodi:docname="bloomberg-logo-alpha.svg"
   inkscape:version="0.92.1 r"
   style="overflow:visible">
  <metadata
     id="metadata16">
    <rdf:RDF>
      <cc:Work
         rdf:about="">
        <dc:format>image/svg+xml</dc:format>
        <dc:type
           rdf:resource="http://purl.org/dc/dcmitype/StillImage" />
        <dc:title></dc:title>
      </cc:Work>
    </rdf:RDF>
  </metadata>
  <defs
     id="defs14" />
  <sodipodi:namedview
     pagecolor="#ffffff"
     bordercolor="#666666"
     borderopacity="1"
     objecttolerance="10"
     gridtolerance="10"
     guidetolerance="10"
     inkscape:pageopacity="0"
     inkscape:pageshadow="2"
     inkscape:window-width="1920"
     inkscape:window-height="1028"
     id="namedview12"
     showgrid="false"
     inkscape:zoom="3.5466075"
     inkscape:cx="139.11033"
     inkscape:cy="11.657648"
     inkscape:window-x="0"
     inkscape:window-y="0"
     inkscape:window-maximized="1"
     inkscape:current-layer="svg10" />
  <g
     id="g4524"
     transform="translate(0,-40)">
    <path
       inkscape:connector-curvature="0"
       style="fill:#010101;fill-opacity:0.50196078"
       id="path2"
       d="m 7.897,47.343998 h 6.52 c 5.959,0 8.585,1.883 8.585,5.708 0,3.324 -2.626,5.581 -7.897,5.581 H 7.897 Z M 0,84.953998 h 15.98 c 8.398,0 16.796,-3 16.796,-12.657 0,-5.708 -4.002,-10.09 -9.579,-10.724 v -0.132 c 4.563,-1.367 7.71,-4.69 7.71,-9.706 0,-8.088 -6.903,-11.157 -13.61,-11.157 H 0 Z m 7.897,-19.555 h 7.582 c 6.392,0 9.411,1.632 9.411,6.274 0,5.821 -5.654,6.515 -9.726,6.515 H 7.897 Z" />
    <path
       inkscape:connector-curvature="0"
       style="fill:none;fill-opacity:1;stroke:#0c0c0c;stroke-width:7.5;stroke-miterlimit:10;stroke-opacity:0.50196078"
       id="path4"
       d="m 41.706,84.953998 v -45.423"
       stroke-miterlimit="10" />
    <path
       inkscape:connector-curvature="0"
       style="fill:#010101;fill-opacity:0.50196078"
       id="path6"
       d="m 58.011,69.912998 c 0,-4.701 3.324,-9.022 8.841,-9.022 5.517,0 8.831,4.322 8.831,9.022 0,4.7 -3.314,9.023 -8.831,9.023 -5.518,0 -8.841,-4.322 -8.841,-9.023 m -7.523,0 c 0,9.465 7.267,15.789 16.364,15.789 9.086,0 16.364,-6.323 16.364,-15.789 0,-9.466 -7.277,-15.798 -16.364,-15.798 -9.097,-10e-4 -16.364,6.333 -16.364,15.798 m 43.643,0 c 0,-4.701 3.324,-9.022 8.841,-9.022 5.517,0 8.831,4.322 8.831,9.022 0,4.7 -3.314,9.023 -8.831,9.023 -5.517,0 -8.841,-4.322 -8.841,-9.023 m -7.523,0 c 0,9.465 7.268,15.789 16.364,15.789 9.086,0 16.364,-6.323 16.364,-15.789 0,-9.466 -7.277,-15.798 -16.364,-15.798 -9.097,-10e-4 -16.364,6.333 -16.364,15.798" />
    <path
       inkscape:connector-curvature="0"
       style="fill:#010101;fill-opacity:0.50196078"
       id="path8"
       d="m 123.918,54.866998 h 7.149 v 4.706 h 0.118 c 1.318,-2.822 4.199,-5.463 9.214,-5.463 4.642,0 7.848,1.814 9.411,5.581 2.193,-3.816 5.389,-5.581 9.893,-5.581 8.024,0 10.848,5.713 10.848,12.922 v 17.923 h -7.523 v -17.048 c 0,-3.757 -1.121,-7.017 -5.576,-7.017 -4.7,0 -6.461,3.884 -6.461,7.764 v 16.3 h -7.513 v -17.923 c 0,-3.708 -1.505,-6.141 -5.143,-6.141 -4.947,0 -6.894,3.624 -6.894,7.641 v 16.423 h -7.523 z m 77.679,15.046 c 0,4.706 -3.314,9.023 -8.841,9.023 -5.518,0 -8.841,-4.317 -8.841,-9.023 0,-4.701 3.323,-9.033 8.841,-9.033 5.527,0 8.841,4.332 8.841,9.033 m -24.949,15.041 h 7.149 v -4.51 h 0.118 c 2.202,3.624 6.146,5.257 10.354,5.257 9.264,0 14.85,-6.894 14.85,-15.789 0,-8.9 -5.959,-15.798 -14.544,-15.798 -5.636,0 -8.654,2.626 -10.218,4.583 h -0.187 v -19.166 h -7.523 v 45.423 z m 43.397,-18.05 c 0.561,-4.332 3.324,-7.149 7.769,-7.149 4.701,0 7.582,2.759 7.651,7.149 z m 22.943,5.64 v -2.065 c 0,-10.473 -5.703,-16.364 -14.102,-16.364 -9.106,0 -16.364,6.333 -16.364,15.798 0,9.465 7.258,15.789 16.364,15.789 4.75,0 9.214,-1.691 12.715,-6.009 l -5.389,-4.066 c -1.878,2.307 -4.327,4.066 -8.084,4.066 -4.198,0 -7.592,-2.699 -8.083,-7.149 z m 4.897,-17.677 h 7.523 v 4.765 h 0.128 c 1.632,-3.447 4.946,-5.522 8.899,-5.522 0.944,0 1.819,0.192 2.694,0.447 v 7.268 c -1.249,-0.31 -2.448,-0.561 -3.639,-0.561 -7.08,0 -8.083,5.959 -8.083,7.592 v 16.099 h -7.523 v -30.088 z m 36.072,6.023 c 5.448,0 8.899,3.624 8.899,8.84 0,5.006 -3.383,8.831 -8.959,8.831 -5.074,0 -8.841,-3.948 -8.841,-8.713 0,-5.334 3.629,-8.958 8.901,-8.958 m 8.899,-6.023 v 4.514 h -0.118 c -2.202,-3.639 -6.155,-5.271 -10.354,-5.271 -9.273,0 -14.85,6.898 -14.85,15.803 0,8.516 5.959,15.415 14.978,15.415 3.766,0 7.65,-1.436 9.854,-4.381 h 0.107 v 2.198 c 0,5.949 -2.242,10.09 -9.519,10.09 -4.199,0 -7.337,-1.574 -10.346,-4.347 l -4.504,6.155 c 4.248,3.776 9.332,4.957 14.918,4.957 11.723,0 16.983,-6.903 16.983,-17.741 v -27.392 z" />
  </g>
  <g
     aria-label="Copyright waived under CC-0 "
     style="font-style:normal;font-variant:normal;font-weight:normal;font-stretch:normal;font-size:47.77927017px;line-height:125%;font-family:'Frutiger Next Pro';-inkscape-font-specification:'Frutiger Next Pro';letter-spacing:0px;word-spacing:0px;fill:#000000;fill-opacity:0.50196078;stroke:none;stroke-width:1.19448173px;stroke-linecap:butt;stroke-linejoin:miter;stroke-opacity:1"
     id="text4528">
    <path
       d="m 34.223879,79.303436 c -1.047959,0.512831 -2.207402,0.646613 -3.344549,0.646613 -3.745895,0 -5.864109,-2.497263 -5.864109,-6.15397 0,-3.500628 2.207402,-6.15397 5.886406,-6.15397 1.047959,0 2.318887,0.200673 3.277658,0.646613 l 0.133782,-1.583087 c -0.981068,-0.423643 -2.430372,-0.579722 -3.500628,-0.579722 -4.526289,0 -7.647868,3.233064 -7.647868,7.670166 0,4.637775 2.943203,7.670166 7.647868,7.670166 1.092553,0 2.564154,-0.156079 3.545222,-0.66891 z"
       style="font-size:22.29699326px;fill:#000000;fill-opacity:0.50196078;stroke-width:1.19448173px"
       id="path4596" />
    <path
       d="m 39.058843,81.020305 c 0.646612,0.289861 1.40471,0.44594 2.274293,0.44594 3.433737,0 5.195199,-2.631045 5.195199,-5.841813 0,-3.277658 -1.716868,-5.730327 -5.195199,-5.730327 -3.299955,0 -5.195199,2.541857 -5.195199,5.730327 0,2.430373 0.981067,4.459399 2.920906,5.395873 z m -0.379049,-2.341184 c -0.557425,-0.869583 -0.802692,-1.984433 -0.802692,-3.054689 0,-2.140511 1.003365,-4.37021 3.456034,-4.37021 2.497263,0 3.456034,2.140511 3.456034,4.37021 0,2.140512 -1.025662,4.481696 -3.456034,4.481696 -1.226335,0 -2.095917,-0.602019 -2.653342,-1.427007 z"
       style="font-size:22.29699326px;fill:#000000;fill-opacity:0.50196078;stroke-width:1.19448173px"
       id="path4598" />
    <path
       d="m 50.715291,86.037128 v -6.622207 c 0.557425,1.315523 1.939839,2.051324 3.389143,2.051324 3.299955,0 4.52629,-2.987797 4.52629,-5.841813 0,-2.943203 -1.11485,-5.730327 -4.503993,-5.730327 -1.471601,0 -2.920906,0.847286 -3.522925,2.162809 l -0.08919,-1.939839 h -1.538492 c 0.06689,1.248632 0.111485,2.408075 0.111485,3.723598 V 86.037128 Z M 51.31731,78.589933 C 50.849073,77.698053 50.6484,76.6055 50.6484,75.624432 c 0,-1.962135 0.824989,-4.347913 3.143877,-4.347913 2.51956,0 3.076985,2.29659 3.076985,4.347913 0,2.029027 -0.602019,4.459399 -3.076985,4.459399 -1.181741,0 -1.962136,-0.624316 -2.474967,-1.493898 z"
       style="font-size:22.29699326px;fill:#000000;fill-opacity:0.50196078;stroke-width:1.19448173px"
       id="path4600" />
    <path
       d="m 60.257708,86.104019 c 0.512831,0.111485 0.802692,0.178376 1.33782,0.178376 1.694571,0 2.586451,-1.40471 3.18847,-3.121579 l 4.459399,-13.043741 h -1.694572 l -2.9655,9.56541 -2.987797,-9.56541 h -1.761462 l 3.857379,11.482952 -0.22297,0.7358 c -0.245266,0.780395 -0.847285,2.564155 -2.07362,2.564155 -0.356752,0 -0.66891,-0.08919 -1.003365,-0.200673 z"
       style="font-size:22.29699326px;fill:#000000;fill-opacity:0.50196078;stroke-width:1.19448173px"
       id="path4602" />
    <path
       d="M 72.707445,81.220978 V 75.71362 c 0,-1.739165 0.490533,-4.236428 2.74253,-4.236428 0.289861,0 0.602019,0.04459 0.89188,0.133782 l 0.08919,-1.627681 c -0.334454,-0.08919 -0.602018,-0.08919 -0.936473,-0.08919 -1.360117,0 -2.51956,1.181741 -2.943203,2.318888 l -0.08919,-2.095918 h -1.493899 c 0.08919,0.869583 0.111485,1.739166 0.111485,2.608748 v 8.495155 z"
       style="font-size:22.29699326px;fill:#000000;fill-opacity:0.50196078;stroke-width:1.19448173px"
       id="path4604" />
    <path
       d="M 80.023645,67.642109 V 65.70227 h -1.627681 v 1.939839 z m 0,13.578869 V 70.117075 h -1.627681 v 11.103903 z"
       style="font-size:22.29699326px;fill:#000000;fill-opacity:0.50196078;stroke-width:1.19448173px"
       id="path4606" />
    <path
       d="m 83.496402,85.702673 c 1.137147,0.356752 2.296591,0.579722 3.456034,0.579722 3.63441,0 5.1952,-2.162808 5.1952,-5.618842 V 70.117075 h -1.538493 v 1.872948 c -0.713504,-1.427008 -1.895244,-2.095918 -3.478331,-2.095918 -3.277658,0 -4.526289,2.787124 -4.526289,5.730327 0,2.742531 1.18174,5.596546 4.481695,5.596546 1.404711,0 2.74253,-0.713504 3.433737,-1.962136 v 1.427008 c 0,2.408075 -1.003364,4.236429 -3.679004,4.236429 -1.137146,0 -2.229699,-0.289861 -3.210767,-0.802692 z m 1.449305,-7.246522 c -0.44594,-0.802692 -0.602019,-1.850651 -0.602019,-2.809422 0,-2.051323 0.602019,-4.37021 3.099282,-4.37021 2.296591,0 3.121579,2.430372 3.121579,4.37021 0,1.872948 -0.758098,4.191835 -3.143876,4.191835 -1.248631,0 -2.006729,-0.579722 -2.474966,-1.382413 z"
       style="font-size:22.29699326px;fill:#000000;fill-opacity:0.50196078;stroke-width:1.19448173px"
       id="path4608" />
    <path
       d="m 97.007684,81.220978 v -5.997891 c 0,-1.962136 0.735801,-3.946568 3.032396,-3.946568 2.14051,0 2.49726,1.583086 2.49726,3.344549 v 6.59991 h 1.60538 v -6.889771 c 0,-2.564154 -0.98107,-4.437102 -3.7013,-4.437102 -1.583085,0 -2.720232,0.691207 -3.433736,2.095918 v -6.845177 h -1.62768 v 16.076132 z"
       style="font-size:22.29699326px;fill:#000000;fill-opacity:0.50196078;stroke-width:1.19448173px"
       id="path4610" />
    <path
       d="m 112.52778,79.771673 c -0.42364,0.178376 -0.80269,0.289861 -1.24863,0.289861 -1.15944,0 -1.42701,-0.869583 -1.42701,-1.85065 v -6.82288 h 2.51956 v -1.270929 h -2.51956 v -3.054688 l -1.60538,0.557425 v 2.497263 h -2.09592 v 1.270929 h 2.09592 v 6.399237 c 0,2.029026 0.28986,3.679004 2.56415,3.679004 0.60202,0 1.24864,-0.08919 1.80606,-0.334455 z"
       style="font-size:22.29699326px;fill:#000000;fill-opacity:0.50196078;stroke-width:1.19448173px"
       id="path4612" />
    <path
       d="m 124.9162,81.220978 2.87631,-9.56541 2.83172,9.56541 h 1.98443 l 3.45604,-11.103903 h -1.56079 l -2.80943,9.587707 -2.87631,-9.587707 h -1.93984 l -2.87631,9.587707 -2.83172,-9.587707 h -1.73916 l 3.52292,11.103903 z"
       style="font-size:22.29699326px;fill:#000000;fill-opacity:0.50196078;stroke-width:1.19448173px"
       id="path4614" />
    <path
       d="m 144.10241,75.646729 v 0.66891 c 0,2.051324 -0.82499,3.835083 -3.18847,3.835083 -1.09255,0 -2.14051,-0.557425 -2.14051,-2.051323 0,-2.2297 2.43037,-2.45267 4.50399,-2.45267 z m 1.73917,5.574249 c -0.11149,-0.780395 -0.13378,-1.538493 -0.13378,-2.363482 v -4.81615 c 0,-2.787124 -1.24863,-4.147241 -4.03576,-4.147241 -1.04796,0 -2.38578,0.312158 -3.34455,0.780395 l 0.13378,1.449305 c 0.95877,-0.624316 2.00673,-0.936474 3.14388,-0.936474 1.85065,0 2.49726,1.047959 2.49726,2.74253 v 0.535128 h -1.24863 c -3.25536,0 -5.75262,0.847286 -5.75262,3.701301 0,2.251996 1.64997,3.299955 3.63441,3.299955 1.40471,0 2.80942,-0.602019 3.45603,-2.029027 l 0.0669,1.78376 z"
       style="font-size:22.29699326px;fill:#000000;fill-opacity:0.50196078;stroke-width:1.19448173px"
       id="path4616" />
    <path
       d="M 150.57272,67.642109 V 65.70227 h -1.62768 v 1.939839 z m 0,13.578869 V 70.117075 h -1.62768 v 11.103903 z"
       style="font-size:22.29699326px;fill:#000000;fill-opacity:0.50196078;stroke-width:1.19448173px"
       id="path4618" />
    <path
       d="m 158.08123,81.220978 3.7682,-11.103903 h -1.69458 l -2.98779,9.676895 -2.9655,-9.676895 h -1.76147 l 3.7236,11.103903 z"
       style="font-size:22.29699326px;fill:#000000;fill-opacity:0.50196078;stroke-width:1.19448173px"
       id="path4620" />
    <path
       d="m 164.68917,74.665662 c 0.0669,-1.583087 1.15944,-3.478331 3.27765,-3.478331 2.16281,0 2.72024,1.962135 2.83172,3.478331 z m 7.69246,1.204037 v -0.267564 c 0,-2.943203 -0.98107,-5.70803 -4.4371,-5.70803 -3.32226,0 -4.94994,2.898609 -4.94994,5.730327 0,3.322252 1.78376,5.841813 5.61885,5.841813 1.04796,0 2.16281,-0.245267 3.12158,-0.713504 l -0.0669,-1.449305 c -0.82498,0.535128 -1.98443,0.847286 -3.05468,0.847286 -2.78713,0 -3.92427,-2.140511 -3.92427,-4.281023 z"
       style="font-size:22.29699326px;fill:#000000;fill-opacity:0.50196078;stroke-width:1.19448173px"
       id="path4622" />
    <path
       d="m 183.62453,81.220978 c -0.0669,-1.159444 -0.11149,-2.296591 -0.11149,-3.522925 V 65.144846 h -1.62768 v 6.845177 c -0.55742,-1.315523 -1.93984,-2.095918 -3.34455,-2.095918 -3.32225,0 -4.57088,2.787124 -4.57088,5.730327 0,2.854016 1.22633,5.841813 4.52629,5.841813 1.53849,0 2.76483,-0.66891 3.47833,-2.095918 l 0.13378,1.850651 z m -7.29112,-2.586451 c -0.46824,-0.869583 -0.62432,-1.984433 -0.62432,-2.987798 0,-2.051323 0.55743,-4.37021 3.07699,-4.37021 2.31889,0 3.14388,2.430372 3.14388,4.37021 0,1.939839 -0.7581,4.437102 -3.12158,4.437102 -1.24864,0 -2.00673,-0.624316 -2.47497,-1.449304 z"
       style="font-size:22.29699326px;fill:#000000;fill-opacity:0.50196078;stroke-width:1.19448173px"
       id="path4624" />
    <path
       d="m 194.38179,70.117075 h -1.62768 v 6.867474 c 0,2.586451 0.86958,4.481696 3.7013,4.481696 1.62768,0 2.80942,-0.735801 3.58982,-2.162809 l 0.0446,1.917542 h 1.4939 c -0.0892,-0.869583 -0.11148,-1.739166 -0.11148,-2.608748 v -8.495155 h -1.60539 v 5.975594 c 0,1.962136 -0.7135,3.968865 -3.03239,3.968865 -2.11821,0 -2.45267,-1.605383 -2.45267,-3.366846 z"
       style="font-size:22.29699326px;fill:#000000;fill-opacity:0.50196078;stroke-width:1.19448173px"
       id="path4626" />
    <path
       d="m 206.35876,81.220978 v -5.975594 c 0,-1.962136 0.7135,-3.968865 3.03239,-3.968865 2.14051,0 2.49726,1.605383 2.49726,3.366846 v 6.577613 h 1.60539 v -6.889771 c 0,-2.564154 -0.86959,-4.437102 -3.7236,-4.437102 -1.60539,0 -2.80942,0.713504 -3.58982,2.140512 l -0.0669,-1.917542 h -1.4939 c 0.0892,0.869583 0.11149,1.739166 0.11149,2.608748 v 8.495155 z"
       style="font-size:22.29699326px;fill:#000000;fill-opacity:0.50196078;stroke-width:1.19448173px"
       id="path4628" />
    <path
       d="m 225.73624,81.220978 c -0.0669,-1.159444 -0.11149,-2.296591 -0.11149,-3.522925 V 65.144846 h -1.62768 v 6.845177 c -0.55742,-1.315523 -1.93984,-2.095918 -3.34455,-2.095918 -3.32225,0 -4.57088,2.787124 -4.57088,5.730327 0,2.854016 1.22633,5.841813 4.52629,5.841813 1.53849,0 2.76483,-0.66891 3.47833,-2.095918 l 0.13378,1.850651 z m -7.29112,-2.586451 c -0.46824,-0.869583 -0.62432,-1.984433 -0.62432,-2.987798 0,-2.051323 0.55743,-4.37021 3.07699,-4.37021 2.31889,0 3.14387,2.430372 3.14387,4.37021 0,1.939839 -0.75809,4.437102 -3.12157,4.437102 -1.24864,0 -2.00673,-0.624316 -2.47497,-1.449304 z"
       style="font-size:22.29699326px;fill:#000000;fill-opacity:0.50196078;stroke-width:1.19448173px"
       id="path4630" />
    <path
       d="m 229.83818,74.665662 c 0.0669,-1.583087 1.15945,-3.478331 3.27766,-3.478331 2.16281,0 2.72023,1.962135 2.83172,3.478331 z m 7.69247,1.204037 v -0.267564 c 0,-2.943203 -0.98107,-5.70803 -4.43711,-5.70803 -3.32225,0 -4.94993,2.898609 -4.94993,5.730327 0,3.322252 1.78376,5.841813 5.61884,5.841813 1.04796,0 2.16281,-0.245267 3.12158,-0.713504 l -0.0669,-1.449305 c -0.82499,0.535128 -1.98443,0.847286 -3.05469,0.847286 -2.78712,0 -3.92427,-2.140511 -3.92427,-4.281023 z"
       style="font-size:22.29699326px;fill:#000000;fill-opacity:0.50196078;stroke-width:1.19448173px"
       id="path4632" />
    <path
       d="M 241.41555,81.220978 V 75.71362 c 0,-1.739165 0.49054,-4.236428 2.74253,-4.236428 0.28986,0 0.60202,0.04459 0.89188,0.133782 l 0.0892,-1.627681 c -0.33446,-0.08919 -0.60202,-0.08919 -0.93647,-0.08919 -1.36012,0 -2.51956,1.181741 -2.94321,2.318888 l -0.0892,-2.095918 h -1.49389 c 0.0892,0.869583 0.11148,1.739166 0.11148,2.608748 v 8.495155 z"
       style="font-size:22.29699326px;fill:#000000;fill-opacity:0.50196078;stroke-width:1.19448173px"
       id="path4634" />
    <path
       d="m 263.72614,79.303436 c -1.04796,0.512831 -2.2074,0.646613 -3.34455,0.646613 -3.7459,0 -5.86411,-2.497263 -5.86411,-6.15397 0,-3.500628 2.2074,-6.15397 5.88641,-6.15397 1.04795,0 2.31888,0.200673 3.27765,0.646613 l 0.13379,-1.583087 c -0.98107,-0.423643 -2.43038,-0.579722 -3.50063,-0.579722 -4.52629,0 -7.64787,3.233064 -7.64787,7.670166 0,4.637775 2.9432,7.670166 7.64787,7.670166 1.09255,0 2.56415,-0.156079 3.54522,-0.66891 z"
       style="font-size:22.29699326px;fill:#000000;fill-opacity:0.50196078;stroke-width:1.19448173px"
       id="path4636" />
    <path
       d="m 276.87787,79.303436 c -1.04796,0.512831 -2.2074,0.646613 -3.34455,0.646613 -3.74589,0 -5.86411,-2.497263 -5.86411,-6.15397 0,-3.500628 2.2074,-6.15397 5.88641,-6.15397 1.04796,0 2.31889,0.200673 3.27766,0.646613 l 0.13378,-1.583087 c -0.98107,-0.423643 -2.43037,-0.579722 -3.50063,-0.579722 -4.52629,0 -7.64787,3.233064 -7.64787,7.670166 0,4.637775 2.94321,7.670166 7.64787,7.670166 1.09255,0 2.56416,-0.156079 3.54522,-0.66891 z"
       style="font-size:22.29699326px;fill:#000000;fill-opacity:0.50196078;stroke-width:1.19448173px"
       id="path4638" />
    <path
       d="m 284.09862,75.044711 v -1.471602 h -5.39587 v 1.471602 z"
       style="font-size:22.29699326px;fill:#000000;fill-opacity:0.50196078;stroke-width:1.19448173px"
       id="path4640" />
    <path
       d="m 288.43121,80.752741 c 0.66891,0.468237 1.53849,0.713504 2.58645,0.713504 4.14724,0 5.06142,-4.370211 5.06142,-7.670166 0,-3.277658 -0.93647,-7.670166 -5.06142,-7.670166 -4.10264,0 -5.03912,4.370211 -5.03912,7.670166 0,2.564154 0.44594,5.574248 2.45267,6.956662 z m -0.17837,-2.943203 c -0.42365,-1.270929 -0.46824,-2.831718 -0.46824,-4.013459 0,-2.318887 0.26756,-6.220861 3.23306,-6.220861 2.9655,0 3.25536,3.835083 3.25536,6.220861 0,2.318887 -0.28986,6.220861 -3.25536,6.220861 -1.51619,0 -2.31888,-0.958771 -2.76482,-2.207402 z"
       style="font-size:22.29699326px;fill:#000000;fill-opacity:0.50196078;stroke-width:1.19448173px"
       id="path4642" />
  </g>
  <g
     id="g4534"
     transform="matrix(0.27722805,0,0,0.27722805,1.0894476,66.70385)">
    <circle
       id="circle4530"
       r="30.096001"
       cy="32.873001"
       cx="31.325001"
       style="fill:#ffffff" />
    <path
       d="m 31.5,14.08 c -10.565,0 -13.222,9.969 -13.222,18.42 0,8.452 2.656,18.42 13.222,18.42 10.564,0 13.221,-9.968 13.221,-18.42 0,-8.451 -2.657,-18.42 -13.221,-18.42 z m 0,6.946 c 0.429,0 0.82,0.066 1.188,0.157 0.761,0.656 1.133,1.561 0.403,2.823 l -7.036,12.93 c -0.216,-1.636 -0.247,-3.24 -0.247,-4.437 0,-3.722 0.258,-11.473 5.692,-11.473 z m 5.266,5.961 c 0.373,1.984 0.426,4.056 0.426,5.513 0,3.723 -0.258,11.475 -5.69,11.475 -0.428,0 -0.822,-0.045 -1.188,-0.136 -0.07,-0.021 -0.134,-0.043 -0.202,-0.067 -0.112,-0.032 -0.23,-0.068 -0.336,-0.11 -1.21,-0.515 -1.972,-1.446 -0.874,-3.093 z"
       id="text2809_1_"
       inkscape:connector-curvature="0"
       style="fill:#000000;fill-opacity:0.50196081" />
    <path
       d="M 31.433,0.5 C 22.556,0.5 15.074,3.59 8.979,9.8 5.892,12.887 3.536,16.407 1.897,20.332 0.297,24.219 -0.5,28.271 -0.5,32.5 c 0,4.268 0.797,8.32 2.397,12.168 1.6,3.85 3.921,7.312 6.969,10.396 3.085,3.049 6.549,5.399 10.398,7.037 3.886,1.602 7.939,2.398 12.169,2.398 4.229,0 8.34,-0.826 12.303,-2.465 3.962,-1.639 7.496,-3.994 10.621,-7.081 3.011,-2.933 5.289,-6.297 6.812,-10.106 C 62.73,41 63.5,36.883 63.5,32.5 63.5,28.157 62.73,24.046 61.17,20.197 59.608,16.312 57.322,12.877 54.313,9.867 48.025,3.619 40.385,0.5 31.433,0.5 Z m 0.134,5.759 c 7.238,0 13.412,2.566 18.554,7.709 2.477,2.477 4.375,5.31 5.67,8.471 1.296,3.162 1.949,6.518 1.949,10.061 0,7.354 -2.516,13.454 -7.506,18.33 -2.592,2.516 -5.502,4.447 -8.74,5.781 -3.2,1.334 -6.498,1.994 -9.927,1.994 -3.468,0 -6.788,-0.653 -9.949,-1.948 C 18.455,55.323 15.617,53.419 13.102,50.941 10.587,48.427 8.647,45.588 7.276,42.425 5.943,39.226 5.259,35.927 5.259,32.498 c 0,-3.467 0.684,-6.787 2.017,-9.949 1.371,-3.2 3.312,-6.074 5.826,-8.628 4.99,-5.103 11.15,-7.662 18.465,-7.662 z"
       id="path2815_1_"
       inkscape:connector-curvature="0"
       style="fill:#000000;fill-opacity:0.50196081" />
  </g>
</svg>
